<svg width="128" height="128" viewBox="0 0 128 128" fill="none" xmlns="http://www.w3.org/2000/svg">
<path d="M113.744 41.9986C113.485 41.7334 113.218 41.4759 112.944 41.2266C112.672 40.9806 112.416 40.7026 112.144 40.4556C111.872 40.2086 111.616 39.9306 111.344 39.6846C111.072 39.4376 110.816 39.1596 110.544 38.9126C110.272 38.6656 110.016 38.3886 109.744 38.1416C109.472 37.8946 109.216 37.6166 108.944 37.3696C108.672 37.1226 108.416 36.8456 108.144 36.5986C116.08 44.1186 120.627 54.3506 120.8 65.0796C120.8 90.6446 93.8879 111.443 60.7999 111.443C42.2719 111.443 25.6959 104.917 14.6719 94.6866L15.4719 95.4586L16.2719 96.2296L17.0719 97.0016L17.8719 97.7726L18.6719 98.5446L19.4719 99.3156L20.2719 100.087C31.2799 110.749 48.2239 117.614 67.1999 117.614C100.288 117.614 127.2 96.8166 127.2 71.3286C127.2 60.4356 122.336 50.1136 113.744 41.9986Z" fill="black"/>
<path d="M116.8 65.0799C116.8 88.5469 91.7278 107.57 60.7998 107.57C29.8718 107.57 4.7998 88.5469 4.7998 65.0799C4.7998 50.5299 14.3998 37.6789 29.1518 30.0569C43.9038 22.4349 53.0878 14.6279 60.7998 14.6279C68.5118 14.6279 75.1038 20.9999 92.4478 30.0579C107.2 37.6769 116.8 50.5299 116.8 65.0799Z" fill="#FBF0DF"/>
<path d="M116.8 65.0801C116.792 62.0623 116.361 59.0604 115.52 56.1621C111.152 107.539 46.1599 110.008 20.6079 94.6421C32.0939 103.226 46.2679 107.786 60.7999 107.57C91.6799 107.57 116.8 88.5161 116.8 65.0801Z" fill="#F6DECE"/>
<path d="M39.2478 27.2339C46.3998 23.0989 55.9038 15.3379 65.2478 15.3229C63.8073 14.8742 62.3085 14.6401 60.7998 14.6279C56.9278 14.6279 52.7998 16.5579 47.5998 19.4579C45.7918 20.4759 43.9198 21.6019 41.9358 22.7749C38.2078 24.9969 33.9358 27.5109 29.1358 30.0259C13.9038 37.9719 4.7998 51.0709 4.7998 65.0799V66.9159C14.4958 33.8829 32.1118 31.3689 39.2478 27.2339Z" fill="#FFFEFC"/>
<path d="M56.1921 18.5317C56.2126 22.1835 55.4183 25.7938 53.8671 29.0997C52.296 32.4414 50.0154 35.4004 47.1841 37.7707C46.7361 38.1567 47.0881 38.8977 47.6641 38.6807C53.0561 36.6607 60.3361 30.6127 57.2641 18.4087C57.1361 17.7137 56.1921 17.8987 56.1921 18.5317ZM59.8241 18.5317C61.7749 21.5929 63.0203 25.0498 63.4701 28.6517C63.9151 32.2387 63.5501 35.8757 62.4001 39.3137C62.2081 39.8537 62.8961 40.3167 63.2801 39.8697C66.7841 35.5497 69.8401 26.9707 60.6881 17.7137C60.2241 17.3137 59.5041 17.9297 59.8241 18.4697V18.5317ZM64.2401 18.2697C67.2861 20.3419 69.851 23.0446 71.7611 26.1947C73.6457 29.3064 74.8199 32.7958 75.2001 36.4137C75.1841 36.5437 75.2201 36.6737 75.3011 36.7787C75.3851 36.8836 75.505 36.9536 75.6376 36.9752C75.7702 36.9969 75.9061 36.9685 76.0191 36.8957C76.1307 36.8242 76.21 36.7119 76.2401 36.5827C77.7121 31.1987 76.8801 22.0187 64.7681 17.2507C64.1281 17.0047 63.7121 17.8377 64.2401 18.2077V18.2697ZM34.7041 34.3147C38.3316 33.2746 41.7053 31.4968 44.6141 29.0927C47.4827 26.7224 49.8149 23.7695 51.4561 20.4297C51.7441 19.8737 52.6561 20.0897 52.5121 20.7067C49.7441 33.0497 40.4801 35.6267 34.7201 35.2867C34.1121 35.3027 34.1281 34.4847 34.7041 34.3147Z" fill="#CCBEA7"/>
<path d="M60.7998 111.443C27.7118 111.443 0.799805 90.6455 0.799805 65.0805C0.799805 49.6515 10.6878 35.2575 27.2478 26.6325C32.0478 24.1635 36.1598 21.6795 39.8238 19.5045C41.8398 18.3015 43.7438 17.1745 45.5838 16.1255C51.1998 12.9165 55.9998 10.7715 60.7998 10.7715C65.5998 10.7715 69.7918 12.6235 75.0398 15.6165C76.6398 16.4965 78.2398 17.4525 79.9518 18.5015C83.9358 20.8775 88.4318 23.5615 94.3518 26.6325C110.912 35.2575 120.8 49.6365 120.8 65.0805C120.8 90.6455 93.8878 111.443 60.7998 111.443ZM60.7998 14.6295C56.9278 14.6295 52.7998 16.5575 47.5998 19.4585C45.7918 20.4765 43.9198 21.6025 41.9358 22.7755C38.2078 24.9975 33.9358 27.5115 29.1358 30.0265C13.9038 37.9725 4.7998 51.0715 4.7998 65.0805C4.7998 88.5165 29.9198 107.586 60.7998 107.586C91.6798 107.586 116.8 88.5165 116.8 65.0805C116.8 51.0705 107.696 37.9725 92.4478 30.0575C86.3998 26.9715 81.6798 24.0715 77.8558 21.7875C76.1118 20.7545 74.5118 19.7975 73.0558 18.9495C68.2078 16.1715 64.6718 14.6295 60.7998 14.6295Z" fill="black"/>
<path d="M72.0802 76.3427C71.3612 79.1817 69.7252 81.7257 67.4082 83.6097C65.6464 85.2457 63.3999 86.2637 61.0082 86.5097C58.5446 86.3038 56.2197 85.2835 54.4002 83.6097C52.1072 81.7177 50.4942 79.1737 49.7922 76.3427C49.7691 76.1745 49.7862 76.0031 49.8422 75.8427C49.8987 75.681 49.9918 75.5345 50.1142 75.4147C50.2405 75.294 50.3918 75.2026 50.5574 75.147C50.7229 75.0913 50.8987 75.0728 51.0722 75.0927H70.8162C70.9886 75.0752 71.1627 75.0956 71.3264 75.1526C71.49 75.2096 71.6391 75.3018 71.7632 75.4227C71.8848 75.5402 71.9769 75.6848 72.032 75.8447C72.0871 76.0046 72.1036 76.1752 72.0802 76.3427Z" fill="#B71422"/>
<path d="M54.4001 83.7326C56.2156 85.4077 58.5323 86.4381 60.9921 86.6646C63.4463 86.4348 65.757 85.4046 67.5681 83.7326C68.1388 83.2201 68.6734 82.6688 69.1681 82.0826C68.1739 80.9979 66.9704 80.1258 65.6301 79.5186C64.2762 78.9045 62.8141 78.5646 61.3281 78.5186C59.7392 78.5532 58.1808 78.9616 56.7791 79.7106C55.3956 80.449 54.2115 81.5117 53.3281 82.8076C53.6961 83.1306 54.0161 83.4396 54.4001 83.7326Z" fill="#FF6164"/>
<path d="M54.6561 82.5141C55.4575 81.5189 56.4725 80.7167 57.6261 80.1671C58.7927 79.61 60.0673 79.3158 61.3601 79.3051C63.7397 79.3666 66.0152 80.2938 67.7601 81.9131C68.1281 81.5271 68.4801 81.1261 68.8161 80.7251C66.7811 78.8551 64.0901 77.7921 61.2801 77.7471C59.782 77.7587 58.3038 78.0912 56.9451 78.7221C55.601 79.3448 54.41 80.2549 53.4561 81.3881C53.8341 81.7841 54.2351 82.1601 54.6561 82.5141Z" fill="black"/>
<path d="M60.9442 87.4356C58.296 87.2182 55.7935 86.1335 53.8242 84.3496C51.3472 82.3296 49.6042 79.5996 48.8482 76.5586C48.7942 76.2886 48.8032 76.0086 48.8752 75.7416C48.948 75.4732 49.081 75.2249 49.2642 75.0156C49.4859 74.7588 49.7628 74.5554 50.0742 74.4206C50.3886 74.2837 50.7294 74.2181 51.0722 74.2286H70.8162C71.1592 74.2216 71.4992 74.2886 71.8122 74.4246C72.1231 74.5594 72.4004 74.7612 72.6242 75.0156C72.8062 75.2276 72.9372 75.4756 73.0062 75.7436C73.0762 76.0106 73.0822 76.2886 73.0242 76.5586C72.2682 79.6006 70.5242 82.3296 68.0482 84.3496C66.0832 86.1303 63.5868 87.2147 60.9442 87.4356ZM51.0722 76.0186C50.8162 76.0186 50.7522 76.1266 50.7362 76.1576C51.4122 78.7956 52.9422 81.1566 55.1042 82.8996C56.7054 84.4108 58.7557 85.3587 60.9442 85.5996C63.1274 85.3611 65.1755 84.4248 66.7842 82.9296C68.9392 81.1846 70.4632 78.8236 71.1362 76.1886C71.1008 76.1388 71.0523 76.0997 70.9962 76.0756C70.9396 76.0512 70.8774 76.0422 70.8162 76.0496L51.0722 76.0186Z" fill="black"/>
<path d="M85.1519 77.2996C90.3219 77.2996 94.5119 74.9226 94.5119 71.9916C94.5119 69.0606 90.3219 66.6846 85.1519 66.6846C79.9819 66.6846 75.7919 69.0606 75.7919 71.9916C75.7919 74.9226 79.9819 77.2996 85.1519 77.2996ZM36.7199 77.2996C41.8899 77.2996 46.0799 74.9226 46.0799 71.9916C46.0799 69.0606 41.8899 66.6846 36.7199 66.6846C31.5499 66.6846 27.3599 69.0606 27.3599 71.9916C27.3599 74.9226 31.5499 77.2996 36.7199 77.2996Z" fill="#FEBBD0"/>
<path d="M41.1198 69.8626C42.8567 69.8677 44.5584 69.3731 46.0218 68.4376C47.4618 67.5192 48.5948 66.1919 49.2758 64.6256C49.9448 63.0787 50.1221 61.3636 49.7838 59.7126C49.4392 58.0505 48.5998 56.5316 47.3758 55.3556C46.1288 54.1578 44.5605 53.3483 42.8618 53.0256C41.1522 52.6959 39.3838 52.8624 37.7658 53.5056C36.167 54.1378 34.7898 55.2268 33.8058 56.6366C32.8404 58.0233 32.3219 59.6719 32.3198 61.3616C32.3198 63.6136 33.2468 65.7736 34.8968 67.3666C36.5468 68.9606 38.7848 69.8586 41.1198 69.8626ZM80.7518 69.8626C82.4909 69.8767 84.1972 69.3896 85.6668 68.4596C87.1129 67.5469 88.2533 66.2229 88.9418 64.6576C89.6184 63.1116 89.8027 61.3949 89.4698 59.7406C89.1302 58.0757 88.2942 56.5528 87.0718 55.3726C85.8271 54.1701 84.2594 53.3557 82.5598 53.0286C80.8486 52.6953 79.0777 52.8594 77.4568 53.5016C75.8556 54.1324 74.4758 55.2211 73.4898 56.6316C72.522 58.0192 72.002 59.6698 71.9998 61.3616C71.9958 63.6066 72.9138 65.7616 74.5548 67.3556C76.1948 68.9486 78.4238 69.8506 80.7518 69.8626Z" fill="black"/>
<path d="M38.4 61.9023C39.0529 61.906 39.6931 61.7217 40.244 61.3713C40.791 61.0213 41.218 60.5243 41.471 59.9413C41.724 59.3602 41.7921 58.7154 41.666 58.0943C41.5377 57.4694 41.2232 56.8981 40.764 56.4553C40.2958 56.0043 39.7065 55.6993 39.068 55.5773C38.4254 55.4527 37.7605 55.5148 37.152 55.7563C36.551 55.9936 36.0331 56.4026 35.663 56.9323C35.2998 57.4534 35.1048 58.0731 35.104 58.7083C35.104 59.5523 35.451 60.3623 36.068 60.9613C36.6952 61.5634 37.5306 61.9011 38.4 61.9023ZM78.032 61.9023C78.6849 61.906 79.3251 61.7217 79.876 61.3713C80.423 61.0213 80.85 60.5243 81.103 59.9413C81.356 59.3602 81.4241 58.7154 81.298 58.0943C81.1697 57.4694 80.8552 56.8981 80.396 56.4553C79.9278 56.0043 79.3385 55.6993 78.7 55.5773C78.0573 55.4527 77.3924 55.5148 76.784 55.7563C76.1829 55.9936 75.6651 56.4026 75.295 56.9323C74.9318 57.4534 74.7368 58.0731 74.736 58.7083C74.736 59.5483 75.078 60.3523 75.689 60.9503C76.299 61.5483 77.129 61.8903 78 61.9023H78.032Z" fill="white"/>
</svg>
