<svg width="128" height="128" viewBox="0 0 128 128" fill="none" xmlns="http://www.w3.org/2000/svg">
<path d="M44.4398 100.63C40.2098 97.2998 35.6998 94.1098 32.6098 89.6198C26.1198 81.6998 21.1198 72.5198 17.7098 62.8798C15.6398 56.6098 14.9398 49.8898 12.2698 43.8598C9.48982 39.4798 12.7498 34.6998 17.5398 33.3098C19.6698 32.8998 23.4298 30.8798 18.8998 32.3298C14.8398 35.3098 14.4498 29.6198 18.6098 29.2598C21.4498 28.8798 22.4998 26.5598 21.5298 24.4598C18.4798 22.4698 28.9298 20.2798 23.6698 17.3098C18.1898 11.3998 31.3298 10.2598 28.0898 16.9798C27.3198 22.1398 37.2698 16.0298 34.9598 21.9898C37.3098 24.8498 43.7598 22.6398 43.5898 26.6598C47.0098 26.8998 48.1898 29.7698 51.3898 29.9898C54.7198 31.4898 60.7498 32.6798 61.8798 36.4298C58.5798 39.0398 50.9298 31.0298 50.5698 38.2698C51.5698 48.9598 51.3098 59.9698 55.2198 70.1498C57.0698 76.3098 61.5498 81.1598 65.5998 85.9598C69.4798 90.6598 74.7198 93.9698 80.0798 96.7598C84.7698 98.9698 89.8298 100.44 94.9498 101.36C97.0198 99.7698 100.69 93.8798 103.92 96.3598C104.08 99.1598 97.4998 102.2 103.61 101.9C107.2 100.82 109.69 104.67 112.65 101.19C115.37 104.42 123.97 99.1298 122.03 105.72C119.41 107.41 115.59 106.39 112.96 108.72C108.63 106.56 105.19 110.65 100.4 110.14C95.0798 111.09 89.6698 111.48 84.2698 111.48C75.4198 110.78 66.3798 110.49 57.9698 107.41C53.2298 106.03 48.5998 103.33 44.4398 100.63ZM51.9098 103.87C56.5398 105.87 61.0698 107.98 66.1398 108.62C74.1898 109.74 82.5098 111.46 90.5898 109.89C86.9298 108.24 83.1498 110.53 79.5098 108.71C75.1398 109.65 70.4498 108.47 66.0098 107.89C60.9598 105.64 55.5098 104.09 50.7798 101.17C44.8698 99.0098 53.8398 103.94 55.4298 104.34C59.1198 106.44 51.3698 103.26 50.2698 102.39C47.1798 100.65 46.7798 101.02 49.9598 102.78C50.5998 103.15 51.2398 103.55 51.9098 103.87ZM43.0998 97.6398C47.5898 99.2998 43.0798 94.4798 41.0298 94.7598C40.1198 93.1798 37.5498 92.1798 39.3598 91.3298C36.0998 92.4598 35.9398 87.0298 34.4098 87.7998C30.9598 86.7098 33.0698 82.8498 28.9598 80.4798C28.5898 77.9798 24.8798 75.8198 23.6998 72.0498C23.1798 70.1198 19.5098 64.5898 21.7598 69.7398C23.6798 74.6998 27.0498 78.9498 29.8598 83.1898C32.0398 87.2298 34.6198 91.4498 38.5798 93.9698C39.9198 95.2698 41.2098 97.2398 43.0998 97.6398ZM30.1698 83.4498C30.9898 84.9098 30.3298 82.7698 30.1698 83.4498ZM48.4698 99.6298C49.4698 99.1898 47.0398 99.0698 48.4698 99.6298ZM50.9098 100.52C50.6598 99.2898 49.7998 101.21 50.9098 100.52ZM53.9598 101.79C55.4098 100.41 51.7198 100.92 53.9598 101.79ZM59.1798 104.7C60.0698 103.4 56.3598 104.21 59.1798 104.7ZM49.1498 97.7098C51.3998 96.2498 46.2398 97.6898 49.1498 97.7098ZM51.4398 98.8498C51.3698 98.0798 50.6198 99.1898 51.4398 98.8498ZM62.8698 105.98C64.7098 107.14 73.5998 108.52 68.0298 106.46C67.0998 106.66 57.6998 103.8 62.8698 105.98ZM44.7198 91.8498C44.5398 91.0798 41.8698 90.9998 44.7198 91.8498ZM50.0398 94.9498C51.4298 93.9898 47.1698 94.2098 50.0398 94.9498ZM54.5198 97.6998C56.4998 96.9498 51.2898 96.9498 54.5198 97.6998ZM42.5498 89.4898C44.7098 91.1398 51.2498 89.6998 45.8498 88.4998C43.3998 87.1898 37.8598 86.2998 41.6298 89.2898L42.5498 89.4898ZM57.5498 98.6498C58.4498 97.1198 53.7798 97.7698 57.5498 98.6498ZM52.9898 95.0198C58.2598 96.5098 48.5598 91.6798 51.6898 94.4698L52.3898 94.7898L52.9898 95.0198ZM62.1298 100.3C67.1198 100.35 57.6198 99.6198 62.1298 100.3ZM40.6298 86.5998C40.4398 85.6698 39.3998 86.6798 40.6298 86.5998ZM70.5698 105.04C70.7098 103.36 68.9498 106.29 70.5698 105.04ZM49.1498 91.8198C48.8498 90.9398 47.5898 91.7798 49.1498 91.8198ZM41.1098 86.0198C43.9698 85.8498 37.1798 84.7598 41.1098 86.0198ZM31.5698 79.8598C31.2098 78.4798 28.4498 77.3898 31.5698 79.8598ZM56.5998 95.7398C56.3498 95.8698 56.0798 95.1398 56.5998 95.7398ZM72.1798 105.3C72.1298 104.39 71.3298 105.65 72.1798 105.3ZM55.2198 94.3198C55.4998 93.1398 52.7798 93.9598 55.2198 94.3198ZM43.6198 86.9598C45.7498 86.7298 40.1998 85.5198 43.6198 86.9598ZM63.2498 99.1598C66.5698 97.8398 60.0098 98.5198 63.2498 99.1598ZM53.0398 92.2298C56.8698 92.7198 48.4798 89.6198 52.1998 91.9498L53.0398 92.2298ZM66.3498 100.42C69.9298 98.2798 68.7498 105.43 72.4198 101.02C76.0398 98.3798 69.2898 104.29 73.7498 101.49C76.9798 99.3298 81.7398 102.51 84.7498 103.55C86.9098 103.44 89.0198 105.42 91.2398 104.22C95.5098 103.07 82.8798 102.51 86.1898 100.47C82.2798 101.61 79.3898 99.1098 77.4698 96.6098C73.0798 95.5998 68.0098 93.3598 65.8198 89.4698C64.9298 88.0098 67.1098 89.6798 65.0498 87.2898C62.4098 84.9398 61.0898 82.2698 59.3198 79.4098C57.1998 78.2798 56.9498 74.9498 56.7398 79.2998C56.7598 76.5598 54.1798 74.7098 53.5498 75.4798C53.5398 72.8398 56.3098 74.1598 54.3698 72.2098C53.9498 69.4698 52.5798 66.6198 52.1698 63.5298C51.5298 62.0398 52.0798 58.8498 49.9798 62.2198C49.2198 65.7898 49.7298 57.8398 50.9198 60.4598C52.4798 57.7898 50.3598 58.0998 50.2698 58.4698C51.2898 56.2098 50.9098 53.0098 49.9998 54.2298C50.5398 51.8398 50.8598 45.4298 49.1898 46.5698C50.1998 44.0698 51.1098 35.1298 46.7198 38.5398C44.9398 38.5698 41.8698 39.1798 40.4098 39.9098C44.9698 42.4198 39.9498 40.8198 38.0898 40.4198C37.8498 42.7498 36.0098 41.7398 33.7098 41.7598C37.3798 42.2098 31.9198 45.5098 29.8198 44.2298C27.0798 45.5398 32.1798 48.7998 29.8698 49.8098C30.1498 51.3298 25.6798 49.2598 26.0298 52.7698C23.3798 51.6498 25.6698 56.9298 26.9898 55.1498C31.4998 56.3698 30.1698 59.1598 30.2798 61.7998C29.5398 63.3398 26.6498 58.1798 29.6398 58.4198C27.2798 54.5898 27.0298 57.0398 25.0798 58.8098C24.6298 58.9398 30.0698 61.3398 26.6498 62.5298C29.6598 62.9998 29.7498 65.6298 30.3598 67.2898C32.1698 69.1698 31.7998 65.2098 33.9598 67.4698C32.5898 65.4498 26.7098 61.7898 31.4398 62.9598C31.4098 60.9298 30.5798 59.2898 32.0398 59.3298C33.4798 56.7298 30.5298 65.7498 33.7698 62.4398C34.6698 62.0498 34.8898 59.8398 36.4998 62.6498C38.8398 64.9498 37.3498 66.6198 34.0398 64.5098C34.6298 66.5198 38.4598 67.2298 37.7398 70.3698C38.4998 73.1298 39.5698 72.1098 40.4998 71.9498C41.2298 74.6298 41.6398 72.6598 41.6798 71.3798C45.0198 72.0998 44.2398 74.0698 45.2798 75.4498C47.5798 76.4898 41.9898 68.4098 45.9398 73.0198C50.0998 76.7698 47.4998 78.3398 43.7698 77.7398C46.1298 77.5498 46.8898 80.9298 49.8398 80.8098C52.5298 82.0898 54.3598 87.0098 49.7198 84.9598C48.1098 83.5098 42.4098 81.7198 47.0698 84.4798C51.3698 86.4698 54.7798 87.6598 58.9298 90.1598C61.8898 92.2798 63.1798 94.6998 64.2998 95.1798C61.8098 96.3698 56.7898 94.2298 60.5198 93.5698C58.1898 93.1498 55.5798 91.9698 57.8098 94.8698C59.6998 96.4498 64.5198 96.2898 65.3898 96.4598C64.6598 98.0698 63.3998 98.1998 65.4198 98.3198C63.1698 99.5398 66.1398 99.7298 66.3498 100.42ZM61.7498 87.4198C60.3798 85.9898 60.0298 83.3098 61.5098 85.6398C62.2598 85.9398 63.9398 90.0198 61.7498 87.4198ZM76.7398 96.9398C77.5898 96.8798 76.7598 97.5898 76.7398 96.9398ZM59.5898 83.9098C60.0798 85.5798 59.5298 81.7398 59.5898 83.9098ZM58.0998 81.8998C60.2698 82.8498 56.3698 78.5798 58.0998 81.8998ZM40.0398 69.4398C41.0498 69.1698 40.5398 71.1698 40.0398 69.4398ZM54.4098 77.2298C55.1398 79.1898 55.0298 74.8998 54.4098 77.2298ZM44.2598 70.1698C45.7598 71.3798 43.5498 68.8798 44.2598 70.1698ZM52.9698 72.9598C51.3398 69.3098 54.1298 70.9598 53.3298 73.5598L52.9698 72.9598ZM37.9498 62.9498C37.2198 61.7498 36.0198 58.2298 36.3998 57.1598C36.7498 58.9098 40.1198 64.6898 38.0498 59.5498C35.7698 55.2498 40.7798 60.9498 41.2998 62.0198C41.5398 63.0898 39.8898 61.7298 41.0098 64.2298C38.9698 61.3798 39.8098 65.8098 37.9498 62.9498ZM33.3098 59.7498C34.3698 61.6598 33.4998 56.9598 33.3098 59.7498ZM35.3898 60.4698C37.0798 63.3998 36.3898 58.3598 35.3898 60.4698ZM30.3698 56.5798C28.6398 54.8598 27.3898 53.2798 30.4498 55.5098C31.6298 55.5598 27.8298 51.9098 30.7298 54.3498C33.7898 54.9098 32.2398 59.3598 30.3698 56.5798ZM33.0098 56.5098C34.0098 55.5198 33.5398 57.4898 33.0098 56.5098ZM34.6298 57.0298C36.4798 58.2298 33.1098 54.1798 34.6298 57.0298ZM31.4098 53.9498C26.3898 49.4798 37.7198 56.2898 32.2298 54.7798L31.4098 53.9498ZM45.7998 62.3098C43.6198 61.0098 45.2198 53.1298 45.9598 58.5198C48.0698 57.8398 45.8398 61.2998 47.4198 61.2698C47.1798 63.4498 46.4698 64.2398 45.7998 62.3098ZM51.1298 65.4598C51.5798 67.0798 51.3398 63.0798 51.1298 65.4598ZM50.1998 64.5398C50.4398 63.5298 50.2298 65.7398 50.1998 64.5398ZM32.3898 52.4798C29.1598 48.0298 41.7698 56.9898 34.4598 53.6098C33.6898 53.3998 32.7698 53.3298 32.3898 52.4798ZM42.6498 57.9098C43.3298 58.5298 42.3398 54.1598 42.6498 57.9098ZM50.4298 62.9098C51.0298 60.7698 50.4798 64.3198 50.4298 62.9098ZM32.8898 50.7798C34.8098 50.3698 40.8398 54.1498 35.2998 51.8598C34.6798 51.1698 33.3698 51.4798 32.8898 50.7798ZM49.3598 58.9898C49.5598 55.1498 50.5098 56.6998 49.3698 59.5398L49.3598 58.9898ZM34.3098 49.4398C35.0898 48.2898 32.2298 44.2598 34.7198 47.9898C35.7998 48.8398 37.8298 49.4198 36.0298 49.7798C38.8698 52.2798 35.3498 50.4598 34.3098 49.4398ZM48.5498 57.7898C49.0898 53.4198 49.0198 60.3498 48.5498 57.7898ZM32.6798 45.4098C33.2798 45.1498 32.9998 46.1998 32.6798 45.4098ZM36.3898 47.6198C38.1598 49.8498 37.3498 45.6098 36.3898 47.6198ZM46.8598 53.4398C47.0598 54.5598 46.8598 52.6698 46.8598 53.4398ZM46.2598 52.0998C47.6098 53.9998 44.8098 48.5098 46.2598 52.0998ZM45.3698 49.7498C46.1998 51.6098 45.1198 48.2698 45.3698 49.7498ZM46.8198 47.3898C45.8198 45.6298 48.0798 39.6398 48.3298 43.3598C47.2798 46.2498 48.0298 47.8698 48.7598 43.9898C50.1198 40.9298 48.4698 50.0098 46.8198 47.3898ZM48.3098 38.4798C48.7498 37.9498 48.4098 39.1298 48.3098 38.4798ZM45.8198 87.5998C45.8898 87.9298 45.2298 87.0798 45.8198 87.5998ZM50.9498 90.1998C53.8098 90.9398 53.7898 89.7598 51.2098 89.4098C49.8198 88.1198 45.4398 86.7498 49.3598 89.2498C49.6298 89.8998 50.4498 89.8798 50.9498 90.1998ZM40.8098 83.4598C42.3798 84.6398 46.7398 86.7798 43.0498 83.9098C44.2898 82.4698 40.6698 81.6998 41.8698 80.7298C38.8098 78.8598 39.4598 79.0298 41.5998 79.0898C37.9298 77.4498 42.1298 77.5698 41.9298 76.7298C40.5098 76.4498 34.8998 74.2298 38.1998 76.9098C34.8398 75.1998 37.3998 77.5498 36.3798 77.2998C32.9398 76.3598 39.4398 79.9198 35.8398 79.0298C37.8098 80.5898 41.1398 83.0298 36.6698 80.6798C36.0998 81.5298 39.8798 82.8198 40.8098 83.4598ZM46.1798 86.5498C52.7098 88.6498 42.9798 83.9698 46.1798 86.5498ZM73.6798 103.2C73.7598 101.9 72.7798 104.31 73.6798 103.2ZM76.4998 104.39C78.0098 102.93 76.5598 106.72 78.9998 104.03C79.0298 102.11 78.9298 100.97 76.1998 103.31C75.4498 103.73 75.1098 105.5 76.4998 104.39ZM31.6498 76.2198C31.1798 74.3998 28.3998 74.4098 31.6498 76.2198ZM34.6598 78.1998C33.5398 76.3398 30.6598 76.5198 34.6598 78.1998ZM51.8298 88.5498C53.5098 90.0398 59.5298 89.6398 53.8598 88.7298C53.0298 87.4898 48.5398 87.7898 51.8298 88.5498ZM75.4298 103.12C77.9998 100.96 72.9298 104.09 75.4298 103.12ZM80.7898 106.81C80.8098 106.12 79.6798 107.11 80.7898 106.81ZM80.7998 105.84C83.6598 102.81 78.0298 106.02 80.7998 105.84ZM24.2198 70.0098C21.7898 66.5398 22.7098 64.9798 20.3598 62.1398C19.9098 59.9698 16.3298 55.0498 18.5098 60.2598C20.4998 63.3098 21.0898 68.0298 24.2198 70.0098ZM79.8998 104.88C85.1598 101.48 77.7498 103.4 79.8998 104.88ZM83.9098 106.45C86.5498 104.19 82.2498 105.98 83.9098 106.45ZM30.7498 72.3798C31.5098 71.2598 28.8098 72.2398 30.7498 72.3798ZM83.0798 105.37C85.6298 103.73 82.4898 103.98 82.6198 105.52L83.0798 105.37ZM48.4998 83.5798C48.4098 82.4698 47.1498 83.6698 48.4998 83.5798ZM50.6398 84.8098C49.9498 83.4298 49.5898 85.0198 50.6398 84.8098ZM87.1698 106.48C90.4398 104.12 85.1898 106.03 86.4898 106.93L87.1698 106.48ZM85.9098 105.88C88.5798 103.65 83.1098 106.87 85.9098 105.88ZM92.2998 110.13C94.0898 108.94 90.1298 109.75 92.2998 110.13ZM32.3898 71.5698C34.7798 72.1098 41.9498 77.4598 37.7198 71.9398C35.5498 71.2998 36.8498 65.9998 34.6398 66.9398C36.1198 69.4198 35.8598 70.4698 32.7398 68.9098C28.8298 66.9998 30.5398 69.8498 31.3098 70.6398C30.2698 70.8898 32.6998 71.5498 32.3898 71.5698ZM21.4898 62.9598C21.9198 61.1898 17.5398 53.2098 19.4198 58.9598C20.0998 60.1698 20.0298 62.4498 21.4898 62.9598ZM41.4998 75.2998C41.4398 75.1498 40.2698 74.2698 41.4998 75.2998ZM44.5298 76.0098C44.5298 74.1298 41.1798 75.2398 44.5298 76.0098ZM70.8298 92.5798C70.3298 91.2998 68.8498 92.5598 70.8298 92.5798ZM72.0898 93.5098C71.9098 92.7898 71.3698 93.6498 72.0898 93.5098ZM82.5198 100.07C83.5198 99.3298 81.2698 99.9798 82.5198 100.07ZM26.9298 64.3498C29.7998 63.2398 23.8598 63.5598 26.9298 64.3498ZM68.5198 90.5498C68.4798 88.6898 66.6898 91.0098 68.5198 90.5498ZM25.7998 61.7098C27.6398 61.0898 24.0898 61.2998 25.7998 61.7098ZM31.1398 64.2998C31.1098 63.6898 30.5798 64.5298 31.1398 64.2998ZM96.3598 104.29C98.7298 103.81 104.13 105.5 105 103.66C102.12 103.59 95.0498 101.63 94.7198 104.12L95.3498 104.22L96.3598 104.29ZM32.8398 64.7298C32.8898 62.8498 31.3798 64.6598 32.8398 64.7298ZM18.7898 54.9798C18.1498 51.3998 16.3598 54.4398 18.7898 54.9798ZM22.1398 55.8198C22.1798 54.6698 19.0698 54.7898 22.1398 55.8198ZM24.0498 56.7598C23.6198 57.3298 23.4998 56.3198 24.0498 56.7598ZM36.1098 64.4898C36.6798 63.9698 34.7598 64.1098 36.1098 64.4898ZM22.7798 54.6398C22.4498 51.9298 18.8998 54.2398 22.7798 54.6398ZM15.9098 50.1798C15.8098 48.9298 15.2398 50.6498 15.9098 50.1798ZM16.9298 49.4098C16.7598 47.9298 16.0498 49.5998 16.9298 49.4098ZM22.5798 52.7798C24.9698 51.8398 18.2298 50.8398 22.0898 52.5998L22.5798 52.7798ZM98.1698 99.4698C99.6998 98.0698 96.2298 99.0398 98.1698 99.4698ZM107.3 104.21C107.91 102.4 105.76 104.44 107.3 104.21ZM23.1498 49.8198C23.4098 48.0698 21.2598 50.1698 23.1498 49.8198ZM15.1198 44.4398C14.6898 41.9698 14.7498 37.6198 18.8798 39.0898C13.3698 40.1898 22.6998 45.9398 21.5198 41.3998C23.8398 41.5098 26.0498 40.0298 24.8398 42.2798C29.4098 41.7798 32.5698 37.8198 36.9798 38.3698C40.4198 37.9098 44.1698 37.5698 47.8698 36.1898C50.9098 35.9698 53.8398 32.6898 52.1798 30.7498C48.0298 30.3998 43.6798 30.9198 39.0998 31.8298C34.0198 32.8898 29.3998 34.8898 24.2698 35.7598C19.2698 36.4298 25.2698 37.6098 23.8398 37.8698C21.2298 38.7698 26.9498 39.3898 23.4998 40.3398C21.3698 39.9298 19.1498 39.1998 20.0598 36.9598C15.2698 37.5798 11.0598 39.5698 14.8498 44.4398H15.1198ZM26.6598 38.5598C27.7798 34.4198 32.6698 41.9598 28.4998 39.1098C27.9998 38.7298 27.1798 38.4298 26.6598 38.5598ZM26.8798 36.5498C28.4998 35.3498 27.7398 37.2298 26.8798 36.5498ZM28.9398 36.5898C29.0898 34.6898 33.6498 37.5998 29.6898 37.2698L28.9398 36.5898ZM31.7498 35.4498C32.7798 34.2498 32.0498 36.5198 31.7498 35.4498ZM32.4698 34.9698C34.1798 32.9098 42.1598 33.6598 36.3198 34.7698C34.7598 33.5898 33.5598 35.4698 32.4698 34.9698ZM42.8898 33.3698C48.0698 35.3598 42.6298 27.7498 42.8898 33.3698ZM45.8498 33.3498C46.9298 30.5198 50.0498 32.2098 46.3498 32.7798C46.4298 33.0798 46.2398 34.2398 45.8498 33.3498ZM21.9898 48.3698C25.2198 46.3898 18.5598 46.6498 21.9898 48.3698ZM24.3798 49.0298C25.5098 47.8298 21.9198 48.5398 24.3798 49.0298ZM17.3398 44.0398C19.1898 42.6198 15.1598 43.4998 17.3398 44.0398ZM112.69 103.69C112.74 102.04 111.28 104.43 112.69 103.69ZM103 97.0798C103.28 95.1798 101.76 97.2398 103 97.0798ZM115.36 104.33C117.94 104.34 123.18 103.53 117.56 103.53C116.68 103.66 112.43 103.64 115.36 104.33ZM26.4798 47.8698C28.5698 47.7298 29.7498 45.5698 26.0698 45.6898C20.3798 45.0998 31.0898 47.6398 25.3398 46.9098C24.5698 47.4198 26.4298 48.0098 26.4798 47.8698ZM28.3198 48.7998C28.0998 47.4598 27.6698 49.5098 28.3198 48.7998ZM30.4998 42.9798C31.3998 41.8598 29.2398 42.6798 30.4998 42.9798ZM23.5498 31.3798C27.2798 30.1098 32.3698 28.6898 34.1298 31.9998C32.3398 29.8498 33.4098 27.7198 35.0998 30.8798C37.4898 34.0698 38.6898 29.4298 37.1298 28.3598C38.8998 30.5598 40.9198 31.5998 38.3198 28.4998C41.1498 25.0998 32.6598 28.9498 30.7298 28.9098C29.8098 29.3198 21.1498 31.1098 23.5498 31.3798ZM25.7398 27.1998C27.8698 25.5998 33.0898 28.1598 29.7398 25.6098C29.4098 25.3098 22.3898 27.5398 25.7398 27.1998ZM33.4898 27.5198C35.9798 27.5798 32.4198 24.1798 35.3798 25.7198C34.8898 24.1298 31.9298 23.8298 30.4798 23.1998C29.6598 24.6498 32.1398 27.5398 33.4898 27.5198ZM27.0998 20.4798C27.9598 19.3198 25.5898 21.0798 27.0998 20.4798ZM30.2598 21.2398C34.2698 20.7098 29.2398 19.5198 29.4498 21.1998L30.2598 21.2398ZM24.3498 16.6198C21.5298 12.9298 29.6598 17.2398 26.7898 13.3798C24.3798 11.4598 22.0598 15.5398 24.3498 16.6198ZM60.5598 36.1198C61.8498 33.8298 55.2198 33.0298 59.6898 35.3098C60.1098 35.4498 60.0098 36.2798 60.5598 36.1198Z" fill="#010101"/>
</svg>
