<svg width="50" height="50" viewBox="0 0 50 50" fill="none" xmlns="http://www.w3.org/2000/svg">
<path d="M49.729 10.9997H48.879C47.828 10.9997 46.838 11.4897 46.199 12.3237L37.499 23.7007L28.799 12.3237C28.162 11.4897 27.171 10.9997 26.121 10.9997H25.271L36.242 25.3457L25.036 39.9997H25.886C26.937 39.9997 27.927 39.5097 28.565 38.6757L37.5 26.9917L46.435 38.6757C47.073 39.5097 48.063 39.9997 49.114 39.9997H49.964L38.758 25.3457L49.729 10.9997ZM21.289 34.2417C18.735 38.1227 13.707 40.1117 8.9 38.3577C4.671 36.8147 2 32.6107 2 28.1087V26.9997H14H25V22.8657C25 16.3607 20.182 10.6657 13.705 10.0567C6.273 9.35774 0 15.2097 0 22.4997V28.0727C0 33.4437 3.215 38.4367 8.269 40.2557C14.872 42.6317 21.817 39.0857 24.165 32.9997H23.527C22.616 32.9997 21.789 33.4807 21.289 34.2417ZM2 22.4997C2 16.7097 6.71 11.9997 12.5 11.9997C18.29 11.9997 23 16.7097 23 22.4997V24.9997H2V22.4997Z" fill="black"/>
</svg>
