<svg width="128" height="128" viewBox="0 0 128 128" fill="none" xmlns="http://www.w3.org/2000/svg">
<path d="M63.9999 88.0799C77.2989 88.0799 88.0799 77.2989 88.0799 63.9999C88.0799 50.7009 77.2989 39.9199 63.9999 39.9199C50.7009 39.9199 39.9199 50.7009 39.9199 63.9999C39.9199 77.2989 50.7009 88.0799 63.9999 88.0799Z" fill="#4E8EF7"/>
<path d="M113.14 23.1401C113.142 21.552 112.688 19.9969 111.83 18.6604C110.972 17.324 109.747 16.2628 108.303 15.6037C106.858 14.9446 105.254 14.7154 103.682 14.9435C102.111 15.1716 100.638 15.8474 99.4401 16.8901C87.5088 7.91224 72.6172 3.79221 57.768 5.36077C42.9188 6.92933 29.2167 14.0698 19.4245 25.3424C9.6323 36.6149 4.47844 51.1811 5.00215 66.1037C5.52587 81.0263 11.6882 95.1953 22.2466 105.754C32.8049 116.312 46.9739 122.474 61.8965 122.998C76.8191 123.522 91.3852 118.368 102.658 108.576C113.93 98.7835 121.071 85.0814 122.639 70.2322C124.208 55.383 120.088 40.4914 111.11 28.5601C112.42 27.0583 113.141 25.1328 113.14 23.1401ZM64.0001 121C54.9692 121.007 46.0658 118.869 38.0234 114.761C29.9811 110.652 23.03 104.692 17.7429 97.3705C12.4558 90.049 8.98403 81.576 7.61361 72.6497C6.24319 63.7234 7.01337 54.5992 9.86067 46.0289C12.708 37.4586 17.5509 29.6875 23.9905 23.3559C30.43 17.0242 38.2819 12.3133 46.8991 9.61128C55.5163 6.90922 64.6522 6.29337 73.5541 7.81445C82.456 9.33553 90.869 12.95 98.1001 18.3601C96.9702 19.953 96.4405 21.8944 96.6048 23.8404C96.7691 25.7864 97.6168 27.6115 98.9977 28.9925C100.379 30.3734 102.204 31.2211 104.15 31.3854C106.096 31.5497 108.037 31.02 109.63 29.8901C115.957 38.3609 119.803 48.4245 120.739 58.9559C121.675 69.4872 119.663 80.0713 114.928 89.5248C110.194 98.9784 102.923 106.929 93.9293 112.487C84.9355 118.046 74.5729 120.993 64.0001 121Z" fill="#4E8EF7"/>
</svg>
