<svg width="128" height="128" viewBox="0 0 128 128" fill="none" xmlns="http://www.w3.org/2000/svg">
<path d="M116.948 97.8071C110.085 97.6201 104.844 98.2591 100.363 100.148C99.0899 100.685 97.0579 100.7 96.8499 102.295C97.5499 103.028 97.6589 104.124 98.2149 105.026C99.2849 106.756 101.091 109.078 102.703 110.294C104.465 111.624 106.28 113.045 108.168 114.196C111.526 116.243 115.275 117.413 118.508 119.464C120.414 120.674 122.307 122.197 124.166 123.561C125.086 124.236 125.703 125.285 126.898 125.708V125.514C126.27 124.714 126.108 123.616 125.532 122.781L122.995 120.244C120.515 116.952 117.366 114.06 114.019 111.659C111.35 109.743 105.377 107.155 104.264 104.05L104.069 103.855C105.961 103.641 108.176 102.957 109.923 102.488C112.857 101.702 115.479 101.905 118.508 101.123L122.605 99.9521V99.1721C121.074 97.6011 119.982 95.5211 118.313 94.0991C113.943 90.3791 109.175 86.6621 104.265 83.5621C101.541 81.8441 98.1759 80.7271 95.2889 79.2701C94.3179 78.7791 92.6119 78.5241 91.9709 77.7081C90.4539 75.7761 89.6289 73.3261 88.4599 71.0751C86.0109 66.3581 83.6059 61.2071 81.4359 56.2441C79.9559 52.8601 78.9889 49.5241 77.1429 46.4881C68.2829 31.9211 58.7469 23.1301 43.9739 14.4881C40.8299 12.6501 37.0449 11.9251 33.0449 10.9751C30.8999 10.8461 28.7529 10.7151 26.6069 10.5841C25.2959 10.0381 23.9339 8.43509 22.7049 7.65709C17.8109 4.56509 5.25687 -2.15991 1.63287 6.68209C-0.656129 12.2631 5.05387 17.7071 7.09487 20.5361C8.52887 22.5181 10.3639 24.7431 11.3879 26.9741C12.0619 28.4411 12.1779 29.9121 12.7549 31.4631C14.1719 35.2851 15.4069 39.4431 17.2419 42.9741C18.1689 44.7621 19.1909 46.6441 20.3639 48.2421C21.0819 49.2231 22.3149 49.6551 22.5089 51.1691C21.3049 52.8551 21.2359 55.4731 20.5589 57.6091C17.5089 67.2241 18.6599 79.1761 23.0959 86.2921C24.4559 88.4781 27.6629 93.1631 32.0709 91.3651C35.9269 89.7951 35.0659 84.9271 36.1689 80.6331C36.4179 79.6601 36.2649 78.9441 36.7539 78.2921V78.4871L40.2669 85.5111C42.8669 89.6981 47.4789 94.0731 51.3889 97.0251C53.4159 98.5561 55.0119 101.202 57.6329 102.098V101.902H57.4379C56.9299 101.111 56.1349 100.783 55.4869 100.147C53.9599 98.6501 52.2619 96.7891 50.9999 95.0741C47.4439 90.2471 44.3019 84.9641 41.4389 79.4651C40.0709 76.8381 38.8819 73.9421 37.7299 71.2691C37.2859 70.2391 37.2919 68.6801 36.3659 68.1471C35.1029 70.1051 33.2439 71.6891 32.2679 74.0011C30.7069 77.6971 30.5059 82.2051 29.9269 86.8791C29.5849 87.0011 29.7369 86.9171 29.5359 87.0731C26.8179 86.4181 25.8639 83.6211 24.8529 81.2201C22.2989 75.1501 21.8239 65.3781 24.0719 58.3911C24.6539 56.5821 27.2819 50.8901 26.2179 49.2191C25.7099 47.5531 24.0339 46.5891 23.0969 45.3161C21.9359 43.7421 20.7779 41.6701 19.9729 39.8521C17.8829 35.1211 16.9069 29.8081 14.7059 25.0241C13.6529 22.7371 11.8739 20.4221 10.4129 18.3901C8.79587 16.1371 6.98387 14.4781 5.72987 11.7551C5.28387 10.7871 4.67887 9.23709 5.33887 8.24209C5.54887 7.57109 5.84687 7.29109 6.50987 7.07209C7.64187 6.19909 10.7939 7.36209 11.9719 7.85109C15.1009 9.15109 17.7129 10.3891 20.3639 12.1451C21.6349 12.9891 22.9229 14.6201 24.4609 15.0721H26.2169C28.9639 15.7031 32.0409 15.2671 34.6079 16.0471C39.1439 17.4251 43.2089 19.5701 46.8999 21.9011C58.1459 29.0031 67.3419 39.1111 73.6319 51.1701C74.6439 53.1121 75.0819 54.9641 75.9729 57.0241C77.7709 61.1771 80.0359 65.4501 81.8249 69.5121C83.6109 73.5641 85.3509 77.6531 87.8749 81.0251C89.2019 82.7971 94.3259 83.7481 96.6559 84.7331C98.2879 85.4221 100.963 86.1421 102.51 87.0731C105.463 88.8551 108.325 90.9761 111.096 92.9281C112.479 93.9031 116.736 96.0441 116.948 97.8071ZM29.7289 23.4661C28.2979 23.4391 27.2859 23.6221 26.2159 23.8551V24.0501H26.4109C27.0939 25.4521 28.2989 26.3561 29.1419 27.5631C29.7919 28.9301 30.4429 30.2951 31.0939 31.6601L31.2879 31.4671C32.4969 30.6141 33.0499 29.2531 33.0429 27.1731C32.5589 26.6641 32.4879 26.0261 32.0679 25.4181C31.5119 24.6071 30.4329 24.1461 29.7289 23.4661Z" fill="#00618A"/>
</svg>
