<svg width="128" height="128" viewBox="0 0 128 128" fill="none" xmlns="http://www.w3.org/2000/svg">
<path d="M42.9456 4.46961H80.3367L41.522 119.474C41.1234 120.656 40.3639 121.683 39.3506 122.411C38.3372 123.138 37.1211 123.53 35.8736 123.529H6.77494C5.82989 123.529 4.89846 123.304 4.05758 122.873C3.2167 122.441 2.49049 121.816 1.93895 121.049C1.38757 120.281 1.02694 119.394 0.88694 118.459C0.746938 117.524 0.831585 116.57 1.13387 115.674L37.2972 8.52442C37.696 7.34234 38.4555 6.31512 39.4688 5.58739C40.482 4.85966 41.6981 4.46808 42.9456 4.46777V4.46961Z" fill="url(#paint0_linear_555_6477)"/>
<path d="M97.2801 81.6074H37.9871C37.4357 81.6064 36.8968 81.7715 36.4407 82.0812C35.9846 82.391 35.6324 82.831 35.4301 83.3439C35.2278 83.8568 35.1847 84.4188 35.3066 84.9565C35.4284 85.4943 35.7095 85.9828 36.1131 86.3584L74.2131 121.92C75.3224 122.955 76.7831 123.531 78.3001 123.53H111.874L97.2801 81.6074Z" fill="#0078D4"/>
<path d="M42.9454 4.46977C41.6842 4.46503 40.4546 4.86363 39.4361 5.60734C38.4176 6.35105 37.6635 7.40092 37.2841 8.60361L1.17867 115.577C0.856343 116.476 0.75518 117.439 0.883736 118.385C1.01229 119.331 1.36679 120.232 1.91724 121.012C2.46769 121.792 3.1979 122.428 4.04612 122.866C4.89434 123.305 5.83561 123.532 6.79033 123.53H36.6407C37.7525 123.331 38.7915 122.841 39.6518 122.109C40.5121 121.378 41.1628 120.431 41.5374 119.365L48.7371 98.1457L74.4565 122.134C75.534 123.025 76.8858 123.518 78.2843 123.53H111.734L97.063 81.6066L54.2973 81.6167L80.4716 4.46977H42.9454Z" fill="url(#paint1_linear_555_6477)"/>
<path d="M90.7033 8.51902C90.3051 7.3386 89.5465 6.31289 88.5345 5.58643C87.5225 4.85997 86.308 4.46939 85.0622 4.46973H43.3911C44.6367 4.46986 45.8508 4.86064 46.8626 5.58705C47.8744 6.31345 48.6329 7.3389 49.0313 8.51902L85.1955 115.674C85.4982 116.569 85.5833 117.524 85.4437 118.459C85.304 119.394 84.9436 120.282 84.3924 121.05C83.8411 121.818 83.1148 122.444 82.2737 122.875C81.4325 123.307 80.5007 123.532 79.5553 123.531H121.228C122.173 123.531 123.105 123.305 123.945 122.873C124.786 122.442 125.512 121.816 126.063 121.048C126.614 120.281 126.974 119.393 127.114 118.458C127.254 117.524 127.169 116.569 126.868 115.674L90.7033 8.51902Z" fill="url(#paint2_linear_555_6477)"/>
<defs>
<linearGradient id="paint0_linear_555_6477" x1="56.574" y1="13.2924" x2="17.7428" y2="128.008" gradientUnits="userSpaceOnUse">
<stop stop-color="#114A8B"/>
<stop offset="1" stop-color="#0669BC"/>
</linearGradient>
<linearGradient id="paint1_linear_555_6477" x1="68.7033" y1="66.7531" x2="59.7215" y2="69.7896" gradientUnits="userSpaceOnUse">
<stop stop-opacity="0.3"/>
<stop offset="0.071" stop-opacity="0.2"/>
<stop offset="0.321" stop-opacity="0.1"/>
<stop offset="0.623" stop-opacity="0.05"/>
<stop offset="1" stop-opacity="0"/>
</linearGradient>
<linearGradient id="paint2_linear_555_6477" x1="63.7635" y1="9.94629" x2="106.389" y2="123.507" gradientUnits="userSpaceOnUse">
<stop stop-color="#3CCBF4"/>
<stop offset="1" stop-color="#2892DF"/>
</linearGradient>
</defs>
</svg>
