<svg width="128" height="128" viewBox="0 0 128 128" fill="none" xmlns="http://www.w3.org/2000/svg">
<g clip-path="url(#clip0_555_6472)">
<path d="M128 128H0V0H128V128Z" fill="#D00000"/>
<path d="M34.1001 99.2996C34.1001 99.3996 34.2001 99.4996 34.2001 99.5996L36.4001 101.8C36.5001 101.9 36.6001 101.9 36.7001 101.9H44.2001C44.3001 101.9 44.4001 101.8 44.5001 101.8L46.7001 99.5996C46.8001 99.4996 46.8001 99.3996 46.8001 99.2996V75.4996C46.8001 75.3996 46.9001 75.2996 46.9001 75.1996L56.4001 66.0996C56.5001 65.9996 56.6001 65.9996 56.6001 66.0996L80.7001 101.7C80.8001 101.8 80.9001 101.8 81.0001 101.8H91.6001C91.7001 101.8 91.8001 101.7 91.9001 101.6L93.8001 97.8996V97.5996L65.7001 56.8996C65.6001 56.7996 65.7001 56.6996 65.7001 56.5996L91.6001 30.7996C91.7001 30.6996 91.7001 30.5996 91.7001 30.4996V29.9996C91.7001 29.8996 91.7001 29.7996 91.6001 29.6996L90.1001 26.2996C90.1001 26.1996 90.0001 26.0996 89.9001 26.0996H79.4001C79.3001 26.0996 79.2001 26.1996 79.1001 26.1996L47.0001 58.4996C46.9001 58.5996 46.9001 58.4996 46.9001 58.3996V28.8996C46.9001 28.7996 46.8001 28.6996 46.8001 28.5996L44.6001 26.2996C44.5001 26.1996 44.4001 26.1996 44.3001 26.1996H36.7001C36.6001 26.1996 36.5001 26.2996 36.4001 26.2996L34.2001 28.6996C34.1001 28.7996 34.1001 28.8996 34.1001 28.9996V99.2996Z" fill="white"/>
</g>
<defs>
<clipPath id="clip0_555_6472">
<rect width="128" height="128" fill="white"/>
</clipPath>
</defs>
</svg>
