<svg width="36" height="80" viewBox="0 0 36 80" fill="none" xmlns="http://www.w3.org/2000/svg">
<path d="M19.7567 80.0004L17.611 79.289C17.611 79.289 17.8967 68.4318 13.9681 67.669C11.3967 64.6747 14.3481 -60.1625 23.7481 67.2433C21.9647 68.1479 20.6 69.7071 19.9396 71.5947C19.5856 74.3825 19.5243 77.1998 19.7567 80.0004Z" fill="url(#paint0_linear_554_6358)"/>
<path d="M20.9165 69.5119C26.6296 65.2112 31.0048 59.3775 33.5336 52.6887C36.0625 45.9999 36.6411 38.7308 35.2022 31.7262C31.0022 13.1976 21.0565 7.10613 19.9851 4.78042C19.0607 3.33222 18.2716 1.80194 17.6279 0.208984L18.4194 51.8347C18.4194 51.8347 16.7794 67.6119 20.9165 69.5119Z" fill="url(#paint1_linear_554_6358)"/>
<path d="M16.5194 70.1972C16.5194 70.1972 -0.969191 58.2858 0.0422386 37.2143C0.136589 30.8619 1.59311 24.6036 4.31342 18.8624C7.03373 13.1211 10.9545 8.03043 15.8108 3.93429C16.3783 3.45214 16.8292 2.84765 17.1296 2.16623C17.43 1.48482 17.572 0.744195 17.5451 0C18.6337 2.34286 18.4565 34.98 18.5708 38.7972C19.0137 53.6458 17.7451 67.3943 16.5194 70.1972Z" fill="url(#paint2_linear_554_6358)"/>
<defs>
<linearGradient id="paint0_linear_554_6358" x1="5.33282" y1="40.7213" x2="29.9947" y2="49.0902" gradientUnits="userSpaceOnUse">
<stop offset="0.231" stop-color="#999875"/>
<stop offset="0.563" stop-color="#9B9977"/>
<stop offset="0.683" stop-color="#A09F7E"/>
<stop offset="0.768" stop-color="#A9A889"/>
<stop offset="0.837" stop-color="#B7B69A"/>
<stop offset="0.896" stop-color="#C9C7B0"/>
<stop offset="0.948" stop-color="#DEDDCB"/>
<stop offset="0.994" stop-color="#F8F6EB"/>
<stop offset="1" stop-color="#FBF9EF"/>
</linearGradient>
<linearGradient id="paint1_linear_554_6358" x1="14.3764" y1="-0.159913" x2="25.2793" y2="67.9228" gradientUnits="userSpaceOnUse">
<stop stop-color="#48A547"/>
<stop offset="1" stop-color="#3F9143"/>
</linearGradient>
<linearGradient id="paint2_linear_554_6358" x1="-1.46213" y1="39.3001" x2="27.7968" y2="29.5013" gradientUnits="userSpaceOnUse">
<stop stop-color="#41A247"/>
<stop offset="0.352" stop-color="#4BA74B"/>
<stop offset="0.956" stop-color="#67B554"/>
<stop offset="1" stop-color="#69B655"/>
</linearGradient>
</defs>
</svg>
