<svg width="369" height="126" viewBox="0 0 369 126" fill="none" xmlns="http://www.w3.org/2000/svg">
<g clip-path="url(#clip0_550_6270)">
<mask id="mask0_550_6270" style="mask-type:luminance" maskUnits="userSpaceOnUse" x="0" y="0" width="147" height="126">
<path d="M146.43 0.0100098H0.00976562V125.49H146.43V0.0100098Z" fill="white"/>
</mask>
<g mask="url(#mask0_550_6270)">
<path d="M140.67 96.7501C132.87 100.83 92.3898 117.48 83.6698 122.05C74.9498 126.62 70.2798 126.49 63.4598 123.23C56.6398 119.97 13.7098 102.51 5.92977 98.7901C2.00977 96.9501 0.00976562 95.3801 0.00976562 93.9101V79.1001C0.00976562 79.1001 56.0898 66.9301 65.1398 63.6501C74.1898 60.3701 77.3198 60.2901 85.0098 63.1101C92.6998 65.9301 138.8 74.2501 146.41 77.0101V91.6101C146.41 93.1301 144.66 94.6101 140.67 96.7401V96.7501Z" fill="#A32422"/>
<path d="M140.67 82.0099C132.87 86.0699 92.39 102.72 83.67 107.21C74.95 111.7 70.28 111.66 63.46 108.41C56.64 105.16 13.71 87.6999 5.92998 84.0099C-1.85002 80.3199 -2.00002 77.7399 5.62998 74.7599C13.26 71.7799 56.09 55.0099 65.14 51.7099C74.19 48.4099 77.32 48.3399 85.01 51.1699C92.7 53.9999 133.01 70.0099 140.58 72.7999C148.15 75.5899 148.5 77.8799 140.67 81.9299V82.0099Z" fill="#DC382C"/>
<path d="M140.67 72.63C132.87 76.7 92.3898 93.34 83.6698 97.83C74.9498 102.32 70.3198 102.28 63.4998 99.01C56.6798 95.74 13.7098 78.38 5.92977 74.67C2.00977 72.81 0.00976562 71.25 0.00976562 69.77V55.01C0.00976562 55.01 56.0898 42.8 65.1398 39.52C74.1898 36.24 77.3198 36.15 85.0098 39.01C92.6998 41.87 138.8 50.11 146.41 52.89V67.49C146.41 69.01 144.66 70.53 140.67 72.63Z" fill="#A32422"/>
<path d="M140.67 57.8201C132.87 61.9001 92.3901 78.5401 83.6701 83.0301C74.9501 87.5201 70.2801 87.4901 63.4601 84.2301C56.6401 80.9701 13.7101 63.5801 5.93008 59.8601C-1.84992 56.1401 -1.98992 53.6101 5.63008 50.6301C13.2501 47.6501 56.0901 30.8401 65.1401 27.6301C74.1901 24.4201 77.3201 24.2201 85.0101 27.0101C92.7001 29.8001 133.01 45.9501 140.58 48.6601C148.15 51.3701 148.5 53.7501 140.67 57.7901V57.8201Z" fill="#DC382C"/>
<path d="M140.67 47.6001C132.87 51.6801 92.3898 68.3301 83.6698 72.8101C74.9498 77.2901 70.3198 77.2601 63.4998 74.0101C56.6798 70.7601 13.7098 53.3501 5.92977 49.6401C2.00977 47.8001 0.00976562 46.2301 0.00976562 44.7501V29.9401C0.00976562 29.9401 56.0898 17.7701 65.1398 14.5001C74.1898 11.2301 77.3198 11.1301 85.0098 13.9501C92.6998 16.7701 138.78 25.0901 146.39 27.8701V42.4701C146.41 44.0101 144.66 45.5101 140.67 47.6001Z" fill="#A32422"/>
<path d="M140.67 32.81C132.87 36.81 92.39 53.56 83.67 58.01C74.95 62.46 70.28 62.45 63.46 59.21C56.64 55.97 13.71 38.54 5.92998 34.84C-1.85002 31.14 -2.00002 28.57 5.62998 25.59C13.26 22.61 56.09 5.80997 65.14 2.54997C74.19 -0.710027 77.32 -0.810027 85.01 2.00997C92.7 4.82997 133.01 20.86 140.58 23.64C148.15 26.42 148.5 28.73 140.67 32.78V32.81Z" fill="#DC382C"/>
</g>
<path d="M75.5099 11.78L85.1699 8.61001L82.5499 14.87L92.3799 18.55L79.7099 19.87L76.8599 26.71L72.2799 19.08L57.6299 17.76L68.5699 13.82L65.2799 7.76001L75.5099 11.78Z" fill="white"/>
<path d="M76.1195 51.7099L52.4395 41.8799L86.3595 36.6699L76.1195 51.7099Z" fill="white"/>
<path d="M43.2894 22.3501C53.2894 22.3501 61.4194 25.5001 61.4194 29.3501C61.4194 33.2001 53.2694 36.3501 43.2894 36.3501C33.3094 36.3501 25.1494 33.2001 25.1494 29.3501C25.1494 25.5001 33.2794 22.3501 43.2894 22.3501Z" fill="white"/>
<path d="M107.39 20.4199L127.46 28.3499L107.41 36.2799L107.39 20.4199Z" fill="#741113"/>
<path d="M107.39 20.4199L107.41 36.2799L105.23 37.1299L85.1699 29.1999L107.39 20.4199Z" fill="#AC2724"/>
<path d="M193.009 41.4099C194.74 39.5213 196.868 38.0392 199.239 37.0699C201.55 36.0792 204.027 35.533 206.539 35.4599C207.438 35.3782 208.344 35.4787 209.204 35.7553C210.063 36.032 210.857 36.4791 211.539 37.0699C212.045 37.5591 212.442 38.1496 212.704 38.8027C212.966 39.4558 213.087 40.1568 213.059 40.8599C213.069 42.2737 212.524 43.6348 211.539 44.6499C211.064 45.1808 210.479 45.6017 209.824 45.8832C209.17 46.1648 208.462 46.3001 207.749 46.2799C201.509 46.8299 192.849 53.0499 192.849 61.4999V80.6799C192.809 82.1037 192.225 83.4579 191.217 84.4641C190.209 85.4703 188.853 86.0521 187.429 86.0899C186.701 86.1156 185.976 85.9792 185.307 85.6903C184.637 85.4015 184.041 84.9676 183.559 84.4199C183.053 83.9264 182.649 83.3373 182.371 82.6869C182.093 82.0364 181.946 81.3373 181.939 80.6299V40.6299C181.945 39.9225 182.092 39.2232 182.37 38.5727C182.648 37.9221 183.052 37.3332 183.559 36.8399C184.746 35.9834 186.166 35.509 187.629 35.4799C189.054 35.508 190.412 36.0856 191.42 37.092C192.429 38.0984 193.009 39.4557 193.039 40.8799L193.009 41.4099Z" fill="#494C4D"/>
<path d="M258.719 59.0101C258.726 60.317 258.244 61.5792 257.369 62.5501C256.332 63.5127 254.992 64.0853 253.579 64.1701H221.579C221.882 66.7116 223.119 69.0499 225.049 70.7301C227.523 73.3901 230.908 75.0216 234.529 75.3001C236.363 75.6117 238.241 75.5565 240.054 75.1377C241.866 74.7188 243.578 73.9447 245.089 72.8601C245.62 72.3248 246.256 71.904 246.956 71.6237C247.656 71.3433 248.406 71.2094 249.159 71.2301C249.807 71.1996 250.454 71.3048 251.058 71.539C251.663 71.7732 252.211 72.1312 252.669 72.5901C253.097 72.9823 253.443 73.455 253.687 73.9811C253.932 74.5072 254.07 75.0764 254.094 75.6561C254.118 76.2358 254.028 76.8145 253.828 77.3592C253.628 77.9038 253.323 78.4036 252.929 78.8301C252.849 78.9201 252.759 79.0001 252.669 79.0901C250.308 81.2759 247.539 82.9751 244.521 84.0904C241.503 85.2057 238.295 85.7153 235.079 85.5901C231.778 85.6618 228.5 85.022 225.469 83.714C222.437 82.4061 219.722 80.4607 217.509 78.0101C212.923 73.1663 210.319 66.7797 210.209 60.1101C210.14 56.7891 210.752 53.4892 212.008 50.414C213.263 47.3388 215.136 44.5535 217.509 42.2301C219.673 39.8729 222.313 38.0023 225.254 36.7421C228.195 35.4819 231.37 34.8608 234.569 34.9201C237.681 34.8013 240.781 35.3443 243.667 36.513C246.553 37.6818 249.158 39.4498 251.309 41.7001C255.899 46.0975 258.624 52.0906 258.919 58.4401V58.9701L258.719 59.0101ZM234.619 44.6601C231.254 44.7174 228.018 45.9685 225.489 48.1901C223.335 50.0009 221.818 52.454 221.159 55.1901H249.589C248.792 52.4407 247.068 50.052 244.709 48.4301C241.862 46.1351 238.362 44.8013 234.709 44.6201" fill="#494C4D"/>
<path d="M309.67 80.1299C309.632 81.5537 309.05 82.909 308.044 83.9171C307.038 84.9252 305.684 85.5095 304.26 85.5499C303.012 85.5001 301.812 85.0519 300.837 84.271C299.861 83.49 299.162 82.4173 298.84 81.2099C294.811 84.0946 289.965 85.6153 285.01 85.5499C281.774 85.5863 278.566 84.9561 275.584 83.6984C272.603 82.4408 269.912 80.5827 267.68 78.2399C265.343 75.9012 263.512 73.1074 262.299 70.0318C261.086 66.9561 260.518 63.6641 260.63 60.3599C260.587 53.7168 263.113 47.3141 267.68 42.4899C269.896 40.1059 272.577 38.2009 275.558 36.8922C278.538 35.5834 281.755 34.8986 285.01 34.8799C289.872 34.8155 294.623 36.3393 298.54 39.2199V20.2899C298.521 19.5778 298.657 18.8701 298.939 18.2158C299.22 17.5614 299.64 16.976 300.17 16.4999C300.669 15.9858 301.266 15.5767 301.925 15.2968C302.585 15.0168 303.294 14.8717 304.01 14.8699C304.722 14.851 305.43 14.987 306.084 15.2684C306.739 15.5499 307.324 15.97 307.8 16.4999C308.309 16.9926 308.715 17.5813 308.994 18.2318C309.274 18.8823 309.422 19.5818 309.43 20.2899V80.1299H309.67ZM285.32 74.7099C287.122 74.747 288.908 74.378 290.548 73.6301C292.187 72.8822 293.637 71.7748 294.79 70.3899C297.381 67.7055 298.829 64.1205 298.829 60.3899C298.829 56.6593 297.381 53.0742 294.79 50.3899C293.6 49.0453 292.144 47.962 290.514 47.2081C288.884 46.4543 287.115 46.0463 285.32 46.0099C283.511 45.9473 281.713 46.3069 280.067 47.0602C278.422 47.8135 276.975 48.9399 275.84 50.3499C273.249 53.0342 271.802 56.6193 271.802 60.3499C271.802 64.0805 273.249 67.6655 275.84 70.3499C277.016 71.7099 278.472 72.7999 280.108 73.5455C281.744 74.2911 283.522 74.6746 285.32 74.6699" fill="#494C4D"/>
<path d="M325.679 20.29V22.47C325.703 23.2351 325.567 23.9968 325.279 24.7062C324.992 25.4157 324.559 26.0573 324.009 26.59C323.52 27.085 322.924 27.4634 322.268 27.6971C321.612 27.9308 320.912 28.0138 320.219 27.94C319.51 27.9639 318.804 27.8322 318.151 27.5541C317.498 27.2759 316.914 26.8581 316.439 26.33C315.902 25.8029 315.479 25.1699 315.198 24.471C314.918 23.7722 314.785 23.0227 314.809 22.27V20.27C314.813 19.5612 314.959 18.8603 315.239 18.2092C315.519 17.558 315.927 16.9699 316.439 16.48C316.93 15.9712 317.517 15.5652 318.166 15.2853C318.815 15.0055 319.513 14.8575 320.219 14.85C320.932 14.8389 321.639 14.9804 322.293 15.265C322.947 15.5496 323.532 15.9706 324.009 16.5C324.546 16.9724 324.972 17.5564 325.259 18.2112C325.546 18.8659 325.686 19.5754 325.669 20.29M316.539 36.82C317.029 36.3078 317.618 35.8995 318.269 35.6195C318.92 35.3394 319.621 35.1934 320.329 35.19C321.042 35.1663 321.751 35.3001 322.406 35.5819C323.062 35.8636 323.646 36.2864 324.119 36.82C324.634 37.3482 325.036 37.9747 325.302 38.662C325.568 39.3493 325.693 40.0833 325.669 40.82V80.43C325.712 81.1479 325.584 81.8658 325.295 82.5246C325.007 83.1834 324.566 83.7644 324.009 84.22C323.519 84.7287 322.932 85.1348 322.283 85.4146C321.634 85.6945 320.936 85.8424 320.229 85.85C319.517 85.8702 318.809 85.7348 318.155 85.4533C317.5 85.1718 316.915 84.7509 316.439 84.22C315.927 83.73 315.519 83.1419 315.239 82.4908C314.959 81.8396 314.813 81.1388 314.809 80.43V40.86C314.791 40.1169 314.926 39.3779 315.206 38.6895C315.487 38.0012 315.907 37.3783 316.439 36.86" fill="#494C4D"/>
<path d="M364.09 40.6099C365.199 41.3742 365.975 42.533 366.26 43.8499C366.478 45.227 366.291 46.6379 365.72 47.9099C364.944 49.0099 363.784 49.7802 362.47 50.0699C361.059 50.3301 359.603 50.0402 358.4 49.2599C354.61 46.8299 351.65 45.4799 349.2 45.4799C347.036 45.3406 344.897 46.0106 343.2 47.3599C342.12 48.1799 341.58 48.7199 341.58 49.2599C341.505 49.731 341.6 50.2133 341.85 50.6199C342.158 50.9532 342.524 51.2277 342.93 51.4299C345.138 52.8178 347.65 53.6514 350.25 53.8599C353.617 54.4151 356.894 55.4243 359.99 56.8599C362.72 58.0005 365.002 60.0021 366.49 62.5599C367.456 64.0504 368.117 65.7172 368.436 67.4645C368.755 69.2117 368.724 71.0047 368.347 72.7402C367.97 74.4757 367.252 76.1194 366.237 77.5765C365.221 79.0335 363.927 80.2752 362.43 81.2299C358.642 83.9375 354.086 85.3604 349.43 85.2899C343.2 85.2899 337.25 82.8599 331.56 78.2899C330.525 77.3782 329.851 76.1259 329.66 74.7599C329.566 73.7468 329.772 72.7285 330.251 71.8312C330.731 70.9338 331.463 70.1967 332.357 69.7113C333.251 69.2259 334.268 69.0135 335.282 69.1004C336.295 69.1872 337.261 69.5695 338.06 70.1999C341.049 73.0429 345.035 74.5979 349.16 74.5299C351.559 74.6116 353.924 73.9478 355.93 72.6299C357.01 71.5499 357.83 70.7399 357.83 69.9199C357.83 69.0999 357.83 68.8399 357.56 68.5699C357.56 68.2899 357.01 67.7599 356.2 67.4899C353.728 65.9614 350.954 64.9858 348.07 64.6299C344.853 64.1663 341.741 63.1514 338.87 61.6299C336.24 60.3473 333.998 58.3909 332.37 55.9599C331.303 54.0574 330.749 51.9109 330.76 49.7299C330.756 47.5305 331.297 45.3643 332.335 43.4254C333.374 41.4865 334.877 39.8354 336.71 38.6199C340.378 36.1196 344.721 34.7975 349.16 34.8299C353.72 35.1099 358.64 36.9899 364.05 40.5199" fill="#494C4D"/>
</g>
<defs>
<clipPath id="clip0_550_6270">
<rect width="368.69" height="125.59" fill="white"/>
</clipPath>
</defs>
</svg>
